<?xml version="1.0" encoding="UTF-8"?>
<svg version="1.1" xmlns="http://www.w3.org/2000/svg" width="32" height="19">
<path d="M0 0 C0.80566406 0.00966797 1.61132812 0.01933594 2.44140625 0.02929688 C8.28367269 0.14183635 8.28367269 0.14183635 10.625 1.3125 C10.625 3.2925 10.625 5.2725 10.625 7.3125 C5.31042206 10.46416831 0.26414275 11.21498707 -5.75 12 C-7.14025391 12.19432617 -7.14025391 12.19432617 -8.55859375 12.39257812 C-10.82960945 12.70864732 -13.10149037 13.01499867 -15.375 13.3125 C-18.3515625 9.625 -18.3515625 9.625 -18.5625 6.8125 C-16.9520658 3.42211221 -15.01562194 2.71277713 -11.70336914 1.13720703 C-7.80227295 -0.24455903 -4.09402501 -0.15175546 0 0 Z " fill="#0C0C0C" transform="translate(19.375,2.6875)"/>
<path d="M0 0 C0.72566162 0.0093457 1.45132324 0.01869141 2.19897461 0.02832031 C3.38910156 0.03605469 3.38910156 0.03605469 4.60327148 0.04394531 C5.83980469 0.07488281 5.83980469 0.07488281 7.10131836 0.10644531 C7.92954102 0.11160156 8.75776367 0.11675781 9.61108398 0.12207031 C15.72937287 0.20172257 15.72937287 0.20172257 18.03881836 1.35644531 C18.03881836 3.33644531 18.03881836 5.31644531 18.03881836 7.35644531 C16.38881836 7.68644531 14.73881836 8.01644531 13.03881836 8.35644531 C13.36881836 6.70644531 13.69881836 5.05644531 14.03881836 3.35644531 C7.76881836 3.35644531 1.49881836 3.35644531 -4.96118164 3.35644531 C-1.96118164 0.35644531 -1.96118164 0.35644531 0 0 Z " fill="#B4D575" transform="translate(11.961181640625,2.6435546875)"/>
<path d="M0 0 C5.94 0 11.88 0 18 0 C17.67 1.65 17.34 3.3 17 5 C13 5 9 5 5 5 C5 3.68 5 2.36 5 1 C3.35 1 1.7 1 0 1 C0 0.67 0 0.34 0 0 Z " fill="#13190E" transform="translate(8,6)"/>
<path d="M0 0 C0.33 0.66 0.66 1.32 1 2 C6.61 2 12.22 2 18 2 C18 3.32 18 4.64 18 6 C18.66 6.33 19.32 6.66 20 7 C18.35 7.33 16.7 7.66 15 8 C15.33 6.35 15.66 4.7 16 3 C9.73 3 3.46 3 -3 3 C-2.01 2.01 -1.02 1.02 0 0 Z " fill="#78AD2B" transform="translate(10,3)"/>
<path d="M0 0 C1.98 0.66 3.96 1.32 6 2 C5.67 2.66 5.34 3.32 5 4 C3.68 4 2.36 4 1 4 C0.67 4.99 0.34 5.98 0 7 C-1.125 2.25 -1.125 2.25 0 0 Z " fill="#242424" transform="translate(2,7)"/>
<path d="M0 0 C3.3 0 6.6 0 10 0 C10 0.99 10 1.98 10 3 C6.14354879 3.22036864 3.50776784 2.60355101 0 1 C0 0.67 0 0.34 0 0 Z " fill="#1C1D1D" transform="translate(15,8)"/>
</svg>
